<svg width="15" height="12" viewBox="0 0 15 12" fill="none" xmlns="http://www.w3.org/2000/svg">
<path d="M12.6302 0.973586L11.7112 1.69153L7.79838 4.59923L3.88556 1.66282L2.96658 0.944868C2.75009 0.765772 2.48581 0.654128 2.20648 0.623766C1.92715 0.593404 1.64506 0.645659 1.39514 0.774057C1.14522 0.902455 0.938466 1.10135 0.800486 1.34611C0.662506 1.59087 0.599366 1.87073 0.618888 2.15102V10.472C0.618888 10.731 0.72176 10.9794 0.904872 11.1625C1.08798 11.3456 1.33634 11.4485 1.5953 11.4485H3.88556V5.90589L7.79838 8.8423L11.7112 5.90589V11.4485H14.0015C14.2604 11.4485 14.5088 11.3456 14.6919 11.1625C14.875 10.9794 14.9779 10.731 14.9779 10.472V2.15102C14.9913 1.87315 14.9238 1.59734 14.7835 1.35713C14.6431 1.11692 14.4361 0.922645 14.1874 0.797926C13.9387 0.673207 13.6591 0.623413 13.3827 0.654598C13.1063 0.685782 12.8448 0.796602 12.6302 0.973586Z" fill="#FEFEFE"/>
</svg>
