<svg width="13" height="15" viewBox="0 0 13 15" fill="none" xmlns="http://www.w3.org/2000/svg">
<path d="M0 12.9758C0 13.7169 0.604687 14.3182 1.35 14.3182H11.25C11.9953 14.3182 12.6 13.7169 12.6 12.9758V5.36932H0V12.9758ZM9 7.49467C9 7.3101 9.15187 7.15909 9.3375 7.15909H10.4625C10.6481 7.15909 10.8 7.3101 10.8 7.49467V8.61328C10.8 8.79785 10.6481 8.94886 10.4625 8.94886H9.3375C9.15187 8.94886 9 8.79785 9 8.61328V7.49467ZM9 11.0742C9 10.8896 9.15187 10.7386 9.3375 10.7386H10.4625C10.6481 10.7386 10.8 10.8896 10.8 11.0742V12.1928C10.8 12.3774 10.6481 12.5284 10.4625 12.5284H9.3375C9.15187 12.5284 9 12.3774 9 12.1928V11.0742ZM5.4 7.49467C5.4 7.3101 5.55187 7.15909 5.7375 7.15909H6.8625C7.04812 7.15909 7.2 7.3101 7.2 7.49467V8.61328C7.2 8.79785 7.04812 8.94886 6.8625 8.94886H5.7375C5.55187 8.94886 5.4 8.79785 5.4 8.61328V7.49467ZM5.4 11.0742C5.4 10.8896 5.55187 10.7386 5.7375 10.7386H6.8625C7.04812 10.7386 7.2 10.8896 7.2 11.0742V12.1928C7.2 12.3774 7.04812 12.5284 6.8625 12.5284H5.7375C5.55187 12.5284 5.4 12.3774 5.4 12.1928V11.0742ZM1.8 7.49467C1.8 7.3101 1.95187 7.15909 2.1375 7.15909H3.2625C3.44812 7.15909 3.6 7.3101 3.6 7.49467V8.61328C3.6 8.79785 3.44812 8.94886 3.2625 8.94886H2.1375C1.95187 8.94886 1.8 8.79785 1.8 8.61328V7.49467ZM1.8 11.0742C1.8 10.8896 1.95187 10.7386 2.1375 10.7386H3.2625C3.44812 10.7386 3.6 10.8896 3.6 11.0742V12.1928C3.6 12.3774 3.44812 12.5284 3.2625 12.5284H2.1375C1.95187 12.5284 1.8 12.3774 1.8 12.1928V11.0742ZM11.25 1.78977H9.89999V0.447443C9.89999 0.201349 9.6975 0 9.45 0H8.55C8.3025 0 8.1 0.201349 8.1 0.447443V1.78977H4.5V0.447443C4.5 0.201349 4.2975 0 4.05 0H3.15C2.9025 0 2.7 0.201349 2.7 0.447443V1.78977H1.35C0.604687 1.78977 0 2.39102 0 3.1321V4.47443H12.6V3.1321C12.6 2.39102 11.9953 1.78977 11.25 1.78977Z" fill="black"/>
</svg>
