<svg width="12" height="11" viewBox="0 0 12 11" fill="none" xmlns="http://www.w3.org/2000/svg">
<path d="M11.1026 6.89338V10.8534H8.78454V7.13485C8.78454 6.21729 8.44649 5.58949 7.62551 5.58949C6.99771 5.58949 6.61137 6.02412 6.46649 6.41046C6.4182 6.55534 6.36991 6.74851 6.36991 6.98997V10.8534H4.05187C4.05187 10.8534 4.10016 4.57534 4.05187 3.94754H6.36991V4.91339C6.65966 4.43047 7.23917 3.75437 8.44649 3.75437C9.94355 3.75437 11.1026 4.76851 11.1026 6.89338ZM1.63724 0.615356C0.86456 0.615356 0.333344 1.14657 0.333344 1.82267C0.333344 2.49876 0.816268 3.02998 1.58895 3.02998C2.40992 3.02998 2.89285 2.49876 2.89285 1.82267C2.94114 1.09828 2.45821 0.615356 1.63724 0.615356ZM0.478221 10.8534H2.79626V3.94754H0.478221V10.8534Z" fill="white"/>
</svg>
