<svg width="24" height="27" viewBox="0 0 24 27" fill="none" xmlns="http://www.w3.org/2000/svg">
<path d="M21.6833 2.36193C24.8134 5.46712 24.7551 10.4745 21.609 13.5684L10.3719 24.6194C7.9978 26.9542 4.13879 26.9544 1.7645 24.6194C-0.586744 22.3071 -0.589584 18.5764 1.7645 16.2614L11.56 6.63757C13.1594 5.06476 15.7725 5.0867 17.3447 6.68897C18.8595 8.23258 18.8109 10.6792 17.2669 12.1976L9.56643 19.7603C9.23525 20.0855 8.69257 20.0911 8.35432 19.7727L7.12963 18.6201C6.79132 18.3017 6.78559 17.78 7.11672 17.4548L14.8164 9.89274C15.0806 9.63289 15.0969 9.20113 14.8511 8.95061C14.6169 8.71193 14.2487 8.70797 14.0107 8.94211L4.21524 18.5659C3.16454 19.5992 3.16454 21.2815 4.21582 22.3153C5.24381 23.3262 6.89209 23.3267 7.9205 22.3153L19.1577 11.2644C21.02 9.4329 21.0487 6.46827 19.2215 4.65566C17.3995 2.84819 14.4544 2.84592 12.6291 4.64092L3.41161 13.7058C3.0807 14.0312 2.53802 14.0371 2.1995 13.7189L0.973951 12.5671C0.635433 12.2489 0.629274 11.7272 0.960237 11.4017L10.1777 2.33695C13.3693 -0.801661 18.5318 -0.764473 21.6833 2.36193Z" fill="#FFC700"/>
</svg>
