<svg width="22" height="21" viewBox="0 0 22 21" fill="none" xmlns="http://www.w3.org/2000/svg">
<path d="M2.136 20.3H3.204V6.41053H2.136C1.5695 6.41053 1.0262 6.63566 0.62562 7.03639C0.225042 7.43713 0 7.98064 0 8.54737V18.1632C0 18.7299 0.225042 19.2734 0.62562 19.6741C1.0262 20.0749 1.5695 20.3 2.136 20.3ZM19.224 6.41053H11.748L12.9463 2.81208C13.0532 2.49093 13.0823 2.14896 13.0313 1.81434C12.9802 1.47973 12.8504 1.16203 12.6526 0.887425C12.4547 0.61282 12.1945 0.389164 11.8933 0.234877C11.5922 0.0805903 11.2587 8.7731e-05 10.9203 0H10.68L5.34 5.81007V20.3H17.088L21.266 11.1159L21.36 10.6842V8.54737C21.36 7.98064 21.135 7.43713 20.7344 7.03639C20.3338 6.63566 19.7905 6.41053 19.224 6.41053Z" fill="black"/>
</svg>
