<svg width="18" height="18" viewBox="0 0 18 18" fill="none" xmlns="http://www.w3.org/2000/svg">
<path d="M8.55128 0.425232C3.82732 0.425232 -0.00012207 4.25267 -0.00012207 8.97663C-0.00012207 13.7006 3.82732 17.528 8.55128 17.528C13.2752 17.528 17.1027 13.7006 17.1027 8.97663C17.1027 4.25267 13.2752 0.425232 8.55128 0.425232ZM10.5202 12.4972L7.47891 10.2869C7.37201 10.2076 7.30995 10.0835 7.30995 9.95246V4.14923C7.30995 3.92165 7.49615 3.73545 7.72372 3.73545H9.37883C9.60641 3.73545 9.79261 3.92165 9.79261 4.14923V8.89733L11.9822 10.4904C12.1684 10.6248 12.2063 10.8835 12.0718 11.0697L11.0995 12.4075C10.965 12.5903 10.7064 12.6317 10.5202 12.4972Z" fill="black"/>
</svg>
