<svg width="18" height="18" viewBox="0 0 18 18" fill="none" xmlns="http://www.w3.org/2000/svg">
<path d="M17.1028 8.97663C17.1028 13.6995 13.2742 17.528 8.5514 17.528C3.82858 17.528 0 13.6995 0 8.97663C0 4.25381 3.82858 0.425232 8.5514 0.425232C13.2742 0.425232 17.1028 4.25381 17.1028 8.97663ZM7.56227 13.5045L13.9069 7.15994C14.1223 6.9445 14.1223 6.59517 13.9069 6.37973L13.1266 5.59952C12.9112 5.38404 12.5619 5.38404 12.3464 5.59952L7.17214 10.7737L4.75641 8.358C4.54097 8.14256 4.19164 8.14256 3.97616 8.358L3.19595 9.13821C2.98051 9.35365 2.98051 9.70298 3.19595 9.91843L6.78202 13.5045C6.99749 13.72 7.34679 13.72 7.56227 13.5045Z" fill="black"/>
</svg>
