<svg width="22" height="21" viewBox="0 0 22 21" fill="none" xmlns="http://www.w3.org/2000/svg">
<path d="M19.2246 6.40822H13.2308L14.4302 2.81214C14.646 2.16277 14.537 1.44292 14.1365 0.887538C13.736 0.332159 13.0866 0 12.402 0H10.6804C10.3632 0 10.063 0.140981 9.85904 0.384493L4.83927 6.40822H2.13607C0.958028 6.40822 0 7.36624 0 8.54429V18.1566C0 19.3347 0.958028 20.2927 2.13607 20.2927H16.3484C16.783 20.2912 17.2069 20.1579 17.5641 19.9104C17.9213 19.6629 18.1949 19.3128 18.3489 18.9064L21.2934 11.0552C21.3381 10.9353 21.3609 10.8083 21.3607 10.6804V8.54429C21.3607 7.36624 20.4027 6.40822 19.2246 6.40822ZM2.13607 8.54429H4.27214V18.1566H2.13607V8.54429ZM19.2246 10.487L16.3484 18.1566H6.40822V7.86288L11.1802 2.13607H12.4042L10.7359 7.13768C10.6817 7.29823 10.6666 7.46937 10.6918 7.63691C10.717 7.80446 10.7818 7.96359 10.8808 8.1011C10.9798 8.23861 11.1101 8.35054 11.261 8.42762C11.4119 8.50469 11.579 8.54469 11.7484 8.54429H19.2246V10.487Z" fill="black"/>
</svg>
